<?xml version="1.0" encoding="utf-8"?>
<!-- Generator: Adobe Illustrator 12.0.0, SVG Export Plug-In . SVG Version: 6.00 Build 51448)  -->
<!DOCTYPE svg PUBLIC "-//W3C//DTD SVG 1.1//EN" "http://www.w3.org/Graphics/SVG/1.1/DTD/svg11.dtd" [
	<!ENTITY ns_svg "http://www.w3.org/2000/svg">
	<!ENTITY ns_xlink "http://www.w3.org/1999/xlink">
]>
<svg  version="1.1" id="Layer_1" xmlns="&ns_svg;" xmlns:xlink="&ns_xlink;" width="638.652" height="218.223"
	 viewBox="0 0 638.652 218.223" overflow="visible" enable-background="new 0 0 638.652 218.223" xml:space="preserve">
<g>
	<path d="M23.281,31.988h-9.438v28.188H9.438V31.988H0v-3.719h23.281V31.988z"/>
	<path d="M48.99,60.175h-4.25V44.532c0-1.887-0.354-3.299-1.063-4.234s-1.723-1.403-3.043-1.403c-0.57,0-1.104,0.078-1.601,0.232
		c-0.497,0.155-1.015,0.423-1.552,0.806c-0.538,0.382-1.125,0.899-1.76,1.549c-0.636,0.651-1.369,1.464-2.2,2.44v16.254h-4.25v-34.5
		h4.25v9.996l-0.146,3.861c0.668-0.797,1.323-1.468,1.967-2.013s1.287-0.988,1.931-1.33s1.299-0.585,1.967-0.732
		s1.36-0.22,2.077-0.22c2.443,0,4.333,0.745,5.669,2.233s2.004,3.729,2.004,6.722V60.175z"/>
	<path d="M77.449,46.639c0,0.603-0.008,1.107-0.024,1.514c-0.017,0.407-0.041,0.79-0.073,1.147H60.137
		c0,2.504,0.7,4.427,2.101,5.769s3.42,2.012,6.058,2.012c0.716,0,1.433-0.029,2.149-0.086s1.409-0.136,2.077-0.234
		c0.667-0.099,1.307-0.21,1.917-0.334c0.61-0.124,1.176-0.259,1.698-0.408v3.5c-1.156,0.324-2.462,0.588-3.919,0.79
		s-2.966,0.304-4.529,0.304c-2.1,0-3.907-0.285-5.421-0.854c-1.514-0.569-2.755-1.395-3.724-2.477
		c-0.969-1.082-1.685-2.407-2.148-3.977c-0.464-1.569-0.696-3.347-0.696-5.331c0-1.724,0.248-3.355,0.745-4.892
		c0.496-1.537,1.22-2.887,2.172-4.05s2.12-2.086,3.503-2.769s2.954-1.025,4.711-1.025c1.708,0,3.222,0.269,4.54,0.806
		s2.429,1.298,3.332,2.283c0.903,0.985,1.587,2.181,2.051,3.589C77.217,43.323,77.449,44.898,77.449,46.639z M73.043,46.019
		c0.049-1.087-0.057-2.081-0.318-2.981s-0.664-1.675-1.21-2.325c-0.546-0.649-1.227-1.156-2.041-1.521
		c-0.815-0.365-1.76-0.548-2.835-0.548c-0.929,0-1.776,0.179-2.542,0.536c-0.766,0.357-1.426,0.86-1.98,1.509
		c-0.554,0.649-1.002,1.428-1.345,2.337s-0.554,1.907-0.635,2.994H73.043z"/>
	<path d="M119.273,60.457c-1.702-0.244-3.18-0.781-4.435-1.61c-1.255-0.83-2.297-1.924-3.128-3.282s-1.45-2.96-1.857-4.807
		c-0.407-1.846-0.611-3.892-0.611-6.137c0-2.896,0.334-5.401,1.002-7.516s1.576-3.859,2.725-5.234
		c1.148-1.375,2.489-2.391,4.021-3.05c1.531-0.659,3.152-0.988,4.863-0.988c2.053,0,3.841,0.37,5.365,1.11s2.79,1.806,3.8,3.197
		c1.01,1.391,1.763,3.074,2.26,5.051s0.746,4.201,0.746,6.674c0,2.603-0.277,4.885-0.831,6.845c-0.554,1.96-1.312,3.624-2.273,4.99
		c-0.961,1.367-2.094,2.44-3.397,3.221c-1.304,0.781-2.699,1.293-4.187,1.537c0.244,1.429,0.813,2.578,1.708,3.447
		c0.895,0.869,2.156,1.303,3.783,1.303c0.781,0,1.549-0.131,2.306-0.393c0.757-0.262,1.525-0.704,2.307-1.326l1.928,3
		c-1.075,0.889-2.182,1.522-3.321,1.901c-1.14,0.378-2.312,0.568-3.517,0.568c-1.303,0-2.499-0.179-3.59-0.537
		c-1.091-0.359-2.04-0.892-2.845-1.6c-0.806-0.708-1.454-1.596-1.942-2.662C119.664,63.09,119.371,61.857,119.273,60.457z
		 M129.492,44.369c0-1.888-0.143-3.608-0.427-5.163c-0.285-1.554-0.745-2.889-1.379-4.003s-1.452-1.981-2.453-2.6
		c-1.001-0.618-2.209-0.928-3.625-0.928c-1.367,0-2.542,0.326-3.527,0.977s-1.794,1.534-2.429,2.648s-1.106,2.417-1.416,3.906
		c-0.31,1.489-0.464,3.072-0.464,4.748c0,1.937,0.146,3.69,0.439,5.261s0.752,2.917,1.379,4.04s1.436,1.989,2.429,2.6
		c0.992,0.61,2.188,0.915,3.588,0.915c1.367,0,2.546-0.325,3.539-0.976c0.992-0.651,1.81-1.538,2.453-2.661s1.119-2.437,1.428-3.942
		C129.337,47.685,129.492,46.078,129.492,44.369z"/>
	<path d="M158.951,60.175h-3.811l-0.146-3.953c-0.733,0.846-1.43,1.549-2.089,2.11c-0.66,0.561-1.316,1.012-1.967,1.354
		c-0.652,0.342-1.308,0.581-1.967,0.72c-0.66,0.138-1.356,0.207-2.089,0.207c-2.525,0-4.432-0.74-5.719-2.22s-1.93-3.717-1.93-6.71
		V35.675h4.25v15.673c0,3.76,1.417,5.639,4.253,5.639c0.521,0,1.03-0.077,1.527-0.232c0.497-0.154,1.019-0.423,1.564-0.806
		c0.546-0.382,1.132-0.899,1.76-1.55c0.627-0.651,1.332-1.473,2.114-2.466V35.675h4.25V60.175z"/>
	<path d="M175.066,39.207h-7.25v-3.531h11.563v20.969h7.281v3.531h-19.656v-3.531h8.063V39.207z M176.566,25.394
		c0.472,0,0.911,0.085,1.318,0.256c0.406,0.171,0.76,0.411,1.061,0.72s0.537,0.663,0.709,1.062c0.17,0.398,0.256,0.834,0.256,1.306
		c0,0.456-0.086,0.887-0.256,1.294c-0.172,0.407-0.408,0.765-0.709,1.074s-0.654,0.549-1.061,0.72
		c-0.407,0.171-0.847,0.256-1.318,0.256c-0.473,0-0.912-0.085-1.318-0.256s-0.761-0.411-1.062-0.72s-0.536-0.667-0.708-1.074
		c-0.17-0.407-0.256-0.838-0.256-1.294c0-0.472,0.086-0.907,0.256-1.306c0.172-0.398,0.407-0.752,0.708-1.062
		s0.655-0.549,1.062-0.72S176.094,25.394,176.566,25.394z"/>
	<path d="M213.244,59.3c-1.107,0.414-2.242,0.721-3.406,0.92s-2.364,0.299-3.602,0.299c-3.874,0-6.857-1.049-8.949-3.148
		c-2.092-2.099-3.137-5.166-3.137-9.201c0-1.936,0.301-3.693,0.903-5.271s1.448-2.929,2.539-4.052
		c1.091-1.123,2.394-1.989,3.907-2.599s3.182-0.916,5.006-0.916c1.27,0,2.457,0.09,3.564,0.271c1.106,0.181,2.164,0.476,3.174,0.886
		v4.063c-1.059-0.556-2.138-0.96-3.236-1.213c-1.1-0.253-2.235-0.38-3.408-0.38c-1.091,0-2.121,0.208-3.09,0.623
		s-1.82,1.013-2.553,1.793c-0.732,0.781-1.311,1.733-1.734,2.855c-0.424,1.123-0.635,2.392-0.635,3.807
		c0,2.961,0.721,5.178,2.162,6.65s3.439,2.208,5.996,2.208c1.156,0,2.275-0.13,3.359-0.391c1.082-0.26,2.129-0.651,3.139-1.172V59.3
		z"/>
	<path d="M243.766,60.175h-5.844L226.484,47.04v13.136h-4.25v-34.5h4.25v21.193l11.031-11.193h5.625l-11.531,11.291L243.766,60.175z
		"/>
	<path d="M297.59,50.621c0,1.531-0.297,2.888-0.893,4.068c-0.594,1.181-1.441,2.179-2.541,2.994s-2.428,1.434-3.984,1.857
		c-1.555,0.424-3.286,0.635-5.192,0.635h-8.358V28.269h9.137c7.117,0,10.676,2.585,10.676,7.754c0,1.723-0.412,3.203-1.234,4.438
		s-2.162,2.154-4.018,2.755c0.863,0.163,1.684,0.44,2.457,0.831c0.775,0.391,1.456,0.896,2.043,1.515s1.052,1.352,1.395,2.199
		C297.418,48.609,297.59,49.563,297.59,50.621z M291.902,36.605c0-0.65-0.098-1.263-0.293-1.84
		c-0.195-0.577-0.537-1.072-1.025-1.486s-1.147-0.743-1.978-0.987c-0.83-0.244-1.88-0.366-3.149-0.366h-4.492v9.969h4.346
		c0.992,0,1.893-0.105,2.697-0.317c0.807-0.211,1.498-0.536,2.076-0.975c0.577-0.438,1.025-0.987,1.342-1.646
		C291.744,38.299,291.902,37.515,291.902,36.605z M292.965,50.774c0-0.814-0.172-1.548-0.514-2.2s-0.839-1.202-1.49-1.65
		c-0.652-0.448-1.446-0.794-2.383-1.039c-0.938-0.244-1.992-0.367-3.165-0.367h-4.448v11h4.595c2.493,0,4.351-0.464,5.572-1.393
		S292.965,52.747,292.965,50.774z"/>
	<path d="M305.174,35.675h3.896l0.122,4.513c1.448-1.739,2.876-3,4.284-3.78s2.828-1.171,4.261-1.171
		c2.539,0,4.464,0.821,5.774,2.464c1.31,1.643,1.916,4.082,1.818,7.317h-4.313c0.049-2.147-0.264-3.705-0.938-4.673
		s-1.662-1.452-2.962-1.452c-0.569,0-1.143,0.102-1.719,0.305c-0.578,0.203-1.17,0.529-1.779,0.976s-1.256,1.021-1.938,1.72
		c-0.683,0.7-1.414,1.546-2.194,2.538v15.742h-4.313V35.675z"/>
	<path d="M353.008,47.73c0,1.903-0.269,3.648-0.806,5.234s-1.311,2.944-2.319,4.075c-1.01,1.13-2.238,2.009-3.688,2.635
		s-3.093,0.939-4.932,0.939c-1.758,0-3.333-0.272-4.725-0.817s-2.572-1.346-3.541-2.403c-0.969-1.057-1.709-2.367-2.221-3.928
		c-0.514-1.562-0.77-3.359-0.77-5.392c0-1.903,0.269-3.64,0.806-5.209c0.537-1.569,1.31-2.919,2.319-4.05s2.238-2.009,3.688-2.635
		c1.448-0.626,3.092-0.939,4.932-0.939c1.758,0,3.332,0.272,4.725,0.817c1.391,0.545,2.571,1.342,3.54,2.391
		c0.969,1.049,1.71,2.354,2.222,3.916C352.752,43.924,353.008,45.713,353.008,47.73z M348.664,47.929
		c0-1.511-0.167-2.831-0.501-3.96s-0.81-2.071-1.429-2.827c-0.619-0.755-1.371-1.324-2.26-1.706
		c-0.887-0.382-1.876-0.573-2.967-0.573c-1.271,0-2.357,0.248-3.261,0.744s-1.645,1.158-2.223,1.986s-1.001,1.791-1.271,2.888
		c-0.268,1.097-0.402,2.246-0.402,3.448c0,1.511,0.166,2.835,0.5,3.973s0.811,2.083,1.43,2.839c0.618,0.756,1.367,1.324,2.246,1.706
		c0.88,0.382,1.873,0.573,2.98,0.573c1.27,0,2.357-0.248,3.261-0.743s1.644-1.158,2.222-1.986s1.002-1.792,1.271-2.888
		S348.664,49.147,348.664,47.929z"/>
	<path d="M381.842,35.675l-3.548,24.5h-5.151l-3.545-10.265l-0.709-2.493l-0.804,2.64l-3.386,10.119h-5.005l-3.54-24.5h4.15
		l2.051,16.655l0.439,3.695l1.05-3.231l3.555-11.025h3.052l3.839,10.879l1.099,3.231l0.366-3.426l1.888-16.777H381.842z"/>
	<path d="M386.645,35.675h3.786l0.171,3.953c0.717-0.846,1.409-1.549,2.077-2.11s1.323-1.012,1.968-1.354
		c0.643-0.341,1.299-0.581,1.967-0.719s1.359-0.208,2.076-0.208c2.525,0,4.436,0.745,5.73,2.233s1.943,3.729,1.943,6.722v15.982
		h-4.25V44.532c0-1.92-0.359-3.339-1.076-4.259c-0.717-0.919-1.783-1.379-3.201-1.379c-0.521,0-1.031,0.078-1.527,0.232
		c-0.498,0.155-1.015,0.423-1.553,0.806c-0.537,0.382-1.12,0.899-1.747,1.549c-0.628,0.651-1.332,1.464-2.114,2.44v16.254h-4.25
		V35.675z"/>
	<path d="M20.875,91.988H7.313v10.344h12.854v3.625H7.313v14.219H2.875V88.269h18V91.988z"/>
	<path d="M50.615,107.73c0,1.903-0.269,3.648-0.806,5.234s-1.311,2.944-2.32,4.075s-2.238,2.009-3.687,2.635
		s-3.093,0.939-4.932,0.939c-1.758,0-3.333-0.272-4.725-0.817s-2.572-1.346-3.541-2.403c-0.969-1.057-1.709-2.367-2.222-3.928
		s-0.769-3.359-0.769-5.392c0-1.903,0.269-3.64,0.806-5.209c0.537-1.569,1.31-2.919,2.319-4.05s2.238-2.009,3.687-2.635
		c1.449-0.626,3.093-0.939,4.932-0.939c1.758,0,3.333,0.272,4.724,0.817s2.572,1.342,3.541,2.391
		c0.969,1.049,1.709,2.354,2.222,3.916S50.615,105.713,50.615,107.73z M46.271,107.929c0-1.511-0.167-2.831-0.501-3.96
		s-0.81-2.071-1.429-2.827c-0.619-0.755-1.372-1.324-2.259-1.706s-1.876-0.573-2.967-0.573c-1.271,0-2.357,0.248-3.261,0.744
		c-0.904,0.496-1.645,1.158-2.223,1.986s-1.001,1.791-1.27,2.888s-0.403,2.246-0.403,3.448c0,1.511,0.167,2.835,0.5,3.973
		s0.81,2.083,1.429,2.839c0.619,0.756,1.368,1.324,2.247,1.706s1.873,0.573,2.98,0.573c1.27,0,2.357-0.248,3.261-0.743
		c0.903-0.496,1.644-1.158,2.222-1.986s1.001-1.792,1.27-2.888S46.271,109.147,46.271,107.929z"/>
	<path d="M78.855,120.175h-5.64l-6.617-9.33l-6.531,9.33h-5.493l9.494-12.312l-9.056-12.188h5.444l6.43,9.428l6.345-9.428h5.249
		l-9.21,12.307L78.855,120.175z"/>
	<path d="M129.242,88.269v22.167c0,1.367-0.204,2.665-0.61,3.894c-0.407,1.229-1.025,2.299-1.855,3.21
		c-0.83,0.912-1.872,1.636-3.125,2.173s-2.727,0.806-4.419,0.806c-0.635,0-1.282-0.045-1.941-0.134
		c-0.659-0.09-1.294-0.211-1.904-0.366s-1.184-0.341-1.721-0.561s-1.001-0.459-1.392-0.72v-4.375c1.01,0.734,2.13,1.314,3.36,1.738
		c1.23,0.425,2.448,0.637,3.654,0.637c1.776,0,3.145-0.541,4.106-1.624c0.961-1.083,1.442-2.642,1.442-4.678V92.019H112.68v-3.75
		H129.242z"/>
	<path d="M158.951,120.175h-3.811l-0.146-3.953c-0.733,0.846-1.43,1.549-2.089,2.11c-0.66,0.561-1.316,1.012-1.967,1.354
		c-0.652,0.342-1.308,0.581-1.967,0.72c-0.66,0.138-1.356,0.207-2.089,0.207c-2.525,0-4.432-0.74-5.719-2.22s-1.93-3.717-1.93-6.71
		V95.675h4.25v15.673c0,3.76,1.417,5.639,4.253,5.639c0.521,0,1.03-0.077,1.527-0.232c0.497-0.154,1.019-0.423,1.564-0.806
		c0.546-0.382,1.132-0.899,1.76-1.55c0.627-0.651,1.332-1.473,2.114-2.466V95.675h4.25V120.175z"/>
	<path d="M184.191,120.175v-17.599c0-0.765-0.029-1.391-0.086-1.879s-0.146-0.875-0.269-1.159s-0.276-0.484-0.464-0.598
		c-0.188-0.114-0.42-0.171-0.697-0.171c-0.326,0-0.627,0.098-0.904,0.293s-0.574,0.513-0.892,0.952s-0.668,1.021-1.051,1.745
		s-0.835,1.615-1.356,2.672v15.744h-3.875v-17.135c0-0.895-0.029-1.619-0.086-2.172c-0.057-0.553-0.146-0.984-0.268-1.293
		c-0.123-0.309-0.281-0.521-0.477-0.635c-0.195-0.114-0.432-0.171-0.707-0.171c-0.293,0-0.57,0.082-0.83,0.244
		c-0.262,0.163-0.55,0.456-0.867,0.879s-0.672,1-1.063,1.733s-0.854,1.668-1.391,2.807v15.744h-3.906v-24.5h3.247l0.195,4.661
		c0.423-0.927,0.833-1.716,1.231-2.366s0.81-1.175,1.232-1.573s0.874-0.691,1.354-0.878c0.48-0.187,1.013-0.281,1.599-0.281
		c1.317,0,2.317,0.431,3.001,1.293c0.683,0.862,1.024,2.196,1.024,4c0.391-0.846,0.773-1.598,1.147-2.256
		c0.375-0.658,0.777-1.211,1.209-1.659s0.908-0.789,1.43-1.024c0.521-0.236,1.123-0.354,1.807-0.354
		c3.078,0,4.617,2.367,4.617,7.101v17.837H184.191z"/>
	<path d="M215.15,107.481c0,2.179-0.305,4.081-0.915,5.707s-1.452,2.976-2.524,4.049c-1.074,1.073-2.343,1.878-3.807,2.415
		c-1.464,0.536-3.049,0.805-4.758,0.805c-0.78,0-1.557-0.04-2.33-0.119c-0.771-0.08-1.557-0.215-2.354-0.406v10.244h-4.25v-34.5
		h3.786l0.269,4.1c1.22-1.675,2.521-2.85,3.903-3.525s2.879-1.012,4.489-1.012c1.398,0,2.627,0.293,3.684,0.878
		c1.058,0.585,1.943,1.411,2.66,2.476c0.715,1.065,1.252,2.35,1.609,3.854S215.15,105.628,215.15,107.481z M210.807,107.683
		c0-1.284-0.094-2.462-0.281-3.535c-0.187-1.072-0.483-1.991-0.89-2.754c-0.407-0.764-0.927-1.361-1.562-1.792
		s-1.391-0.646-2.269-0.646c-0.537,0-1.082,0.085-1.635,0.256c-0.553,0.171-1.126,0.455-1.72,0.854s-1.22,0.926-1.879,1.584
		c-0.658,0.658-1.361,1.475-2.109,2.449v11.871c0.78,0.325,1.602,0.582,2.464,0.768c0.862,0.187,1.708,0.28,2.537,0.28
		c2.293,0,4.09-0.776,5.392-2.328C210.156,113.14,210.807,110.803,210.807,107.683z"/>
	<path d="M241.109,113.488c0,0.862-0.146,1.635-0.439,2.318c-0.293,0.684-0.691,1.29-1.197,1.818
		c-0.504,0.529-1.09,0.98-1.758,1.354c-0.667,0.374-1.379,0.683-2.137,0.927c-0.756,0.244-1.533,0.422-2.332,0.537
		c-0.797,0.114-1.578,0.171-2.344,0.171c-1.66,0-3.187-0.074-4.578-0.222c-1.392-0.148-2.755-0.387-4.09-0.716v-3.906
		c1.432,0.409,2.854,0.719,4.27,0.932s2.822,0.318,4.221,0.318c2.033,0,3.539-0.276,4.515-0.828s1.464-1.339,1.464-2.361
		c0-0.439-0.078-0.833-0.232-1.183s-0.436-0.683-0.842-1s-1.037-0.646-1.892-0.988c-0.854-0.341-2.021-0.732-3.502-1.171
		c-1.106-0.325-2.128-0.695-3.063-1.11c-0.936-0.415-1.745-0.907-2.429-1.476s-1.22-1.236-1.61-2.001s-0.586-1.667-0.586-2.708
		c0-0.683,0.158-1.431,0.476-2.244s0.858-1.57,1.623-2.27c0.765-0.699,1.798-1.281,3.1-1.745c1.302-0.463,2.929-0.695,4.882-0.695
		c0.959,0,2.025,0.052,3.196,0.154s2.392,0.28,3.661,0.533v3.781c-1.334-0.32-2.6-0.557-3.795-0.709
		c-1.196-0.152-2.233-0.229-3.112-0.229c-1.058,0-1.948,0.082-2.673,0.245c-0.724,0.163-1.31,0.387-1.757,0.672
		s-0.769,0.62-0.964,1.002c-0.195,0.383-0.293,0.795-0.293,1.235c0,0.439,0.086,0.838,0.256,1.196
		c0.172,0.358,0.489,0.704,0.953,1.037c0.465,0.333,1.111,0.667,1.942,1s1.913,0.695,3.249,1.085
		c1.449,0.423,2.672,0.867,3.665,1.33c0.993,0.464,1.8,0.98,2.419,1.549s1.063,1.212,1.331,1.928S241.109,112.578,241.109,113.488z"
		/>
	<path d="M298.965,104.015c0,2.864-0.338,5.337-1.014,7.42c-0.677,2.083-1.59,3.804-2.738,5.163
		c-1.148,1.359-2.492,2.368-4.031,3.027c-1.541,0.659-3.166,0.988-4.877,0.988c-2.053,0-3.84-0.371-5.363-1.11
		c-1.523-0.74-2.787-1.811-3.789-3.21s-1.747-3.104-2.236-5.114c-0.488-2.01-0.732-4.275-0.732-6.798
		c0-2.831,0.334-5.289,1.002-7.372s1.576-3.804,2.725-5.163c1.148-1.358,2.488-2.367,4.021-3.026
		c1.531-0.659,3.152-0.989,4.863-0.989c2.053,0,3.841,0.375,5.364,1.123s2.791,1.818,3.801,3.209c1.01,1.392,1.764,3.088,2.26,5.089
		C298.717,99.255,298.965,101.509,298.965,104.015z M294.434,104.335c0-1.871-0.143-3.583-0.428-5.137s-0.744-2.892-1.379-4.015
		c-0.635-1.123-1.452-1.993-2.453-2.611c-1-0.618-2.209-0.928-3.624-0.928c-1.367,0-2.542,0.33-3.526,0.989s-1.795,1.554-2.43,2.685
		s-1.105,2.457-1.415,3.979s-0.464,3.136-0.464,4.844c0,1.888,0.146,3.608,0.439,5.162s0.752,2.888,1.379,4.002
		c0.627,1.115,1.436,1.981,2.429,2.6c0.992,0.618,2.188,0.927,3.588,0.927c1.366,0,2.546-0.329,3.539-0.988
		c0.992-0.659,1.81-1.554,2.452-2.685s1.119-2.453,1.429-3.966S294.434,106.06,294.434,104.335z"/>
	<path d="M301.893,95.675h4.834l6.012,16.222l1.295,3.958l1.341-4.056l5.949-16.124h4.663l-9.609,24.5h-4.883L301.893,95.675z"/>
	<path d="M352.352,106.639c0,0.603-0.008,1.107-0.024,1.514c-0.017,0.407-0.041,0.79-0.073,1.147h-17.215
		c0,2.504,0.7,4.427,2.101,5.769s3.42,2.012,6.058,2.012c0.717,0,1.434-0.029,2.15-0.086s1.408-0.136,2.076-0.234
		s1.307-0.21,1.918-0.334c0.609-0.124,1.176-0.259,1.697-0.408v3.5c-1.156,0.324-2.463,0.588-3.92,0.79s-2.966,0.304-4.528,0.304
		c-2.101,0-3.907-0.285-5.421-0.854s-2.756-1.395-3.725-2.477c-0.969-1.082-1.684-2.407-2.148-3.977
		c-0.463-1.569-0.695-3.347-0.695-5.331c0-1.724,0.248-3.355,0.744-4.892s1.221-2.887,2.173-4.05s2.12-2.086,3.503-2.769
		s2.953-1.025,4.711-1.025c1.709,0,3.223,0.269,4.541,0.806s2.428,1.298,3.332,2.283c0.902,0.985,1.586,2.181,2.051,3.589
		C352.119,103.323,352.352,104.898,352.352,106.639z M347.945,106.019c0.049-1.087-0.057-2.081-0.318-2.981
		c-0.26-0.9-0.664-1.675-1.209-2.325c-0.547-0.649-1.227-1.156-2.041-1.521c-0.815-0.365-1.761-0.548-2.836-0.548
		c-0.929,0-1.776,0.179-2.542,0.536c-0.767,0.357-1.427,0.86-1.979,1.509c-0.555,0.649-1.003,1.428-1.346,2.337
		c-0.342,0.909-0.554,1.907-0.635,2.994H347.945z"/>
	<path d="M360.154,95.675h3.896l0.122,4.513c1.448-1.739,2.876-3,4.284-3.78s2.828-1.171,4.261-1.171
		c2.539,0,4.464,0.821,5.774,2.464c1.31,1.643,1.916,4.082,1.818,7.317h-4.313c0.049-2.147-0.264-3.705-0.938-4.673
		s-1.662-1.452-2.962-1.452c-0.569,0-1.143,0.102-1.719,0.305c-0.578,0.203-1.17,0.529-1.779,0.976s-1.256,1.021-1.938,1.72
		c-0.683,0.7-1.414,1.546-2.194,2.538v15.742h-4.313V95.675z"/>
	<path d="M23.281,151.988h-9.438v28.188H9.438v-28.188H0v-3.719h23.281V151.988z"/>
	<path d="M48.99,180.176h-4.25v-15.644c0-1.888-0.354-3.299-1.063-4.234s-1.723-1.403-3.043-1.403c-0.57,0-1.104,0.078-1.601,0.232
		s-1.015,0.423-1.552,0.805c-0.538,0.383-1.125,0.899-1.76,1.55c-0.636,0.651-1.369,1.464-2.2,2.44v16.254h-4.25v-34.5h4.25v9.996
		l-0.146,3.861c0.668-0.797,1.323-1.469,1.967-2.014s1.287-0.988,1.931-1.33s1.299-0.585,1.967-0.731s1.36-0.22,2.077-0.22
		c2.443,0,4.333,0.744,5.669,2.232s2.004,3.729,2.004,6.723V180.176z"/>
	<path d="M77.449,166.64c0,0.603-0.008,1.106-0.024,1.514c-0.017,0.407-0.041,0.79-0.073,1.147H60.137c0,2.504,0.7,4.428,2.101,5.77
		s3.42,2.012,6.058,2.012c0.716,0,1.433-0.029,2.149-0.086c0.717-0.059,1.409-0.137,2.077-0.234c0.667-0.1,1.307-0.211,1.917-0.334
		c0.61-0.124,1.176-0.26,1.698-0.408v3.5c-1.156,0.324-2.462,0.588-3.919,0.79s-2.966,0.304-4.529,0.304
		c-2.1,0-3.907-0.285-5.421-0.854c-1.514-0.57-2.755-1.395-3.724-2.477s-1.685-2.408-2.148-3.978s-0.696-3.347-0.696-5.331
		c0-1.725,0.248-3.355,0.745-4.893c0.496-1.537,1.22-2.887,2.172-4.05s2.12-2.086,3.503-2.769c1.383-0.684,2.954-1.025,4.711-1.025
		c1.708,0,3.222,0.269,4.54,0.806s2.429,1.298,3.332,2.282c0.903,0.985,1.587,2.182,2.051,3.59S77.449,164.898,77.449,166.64z
		 M73.043,166.02c0.049-1.087-0.057-2.081-0.318-2.981s-0.664-1.675-1.21-2.325c-0.546-0.648-1.227-1.155-2.041-1.521
		c-0.815-0.365-1.76-0.548-2.835-0.548c-0.929,0-1.776,0.179-2.542,0.535c-0.766,0.357-1.426,0.86-1.98,1.51
		c-0.554,0.648-1.002,1.428-1.345,2.336c-0.342,0.909-0.554,1.907-0.635,2.994H73.043z"/>
	<path d="M131.898,180.176h-18.375V148.27h4.406v28.188h13.969V180.176z"/>
	<path d="M154.979,180.176l-0.098-3.295c-1.334,1.316-2.689,2.269-4.064,2.854c-1.375,0.586-2.819,0.879-4.333,0.879
		c-1.399,0-2.596-0.18-3.588-0.537c-0.993-0.357-1.811-0.85-2.453-1.477s-1.115-1.363-1.416-2.21
		c-0.301-0.847-0.452-1.766-0.452-2.759c0-2.457,0.915-4.383,2.746-5.773c1.831-1.393,4.536-2.088,8.115-2.088h5.077v-2.141
		c0-1.441-0.463-2.598-1.39-3.465s-2.341-1.301-4.243-1.301c-1.382,0-2.744,0.154-4.084,0.464c-1.341,0.31-2.727,0.748-4.158,1.317
		v-3.844c0.537-0.195,1.134-0.387,1.793-0.574c0.659-0.187,1.354-0.354,2.087-0.5c0.732-0.146,1.497-0.264,2.294-0.354
		c0.797-0.09,1.602-0.135,2.416-0.135c1.48,0,2.814,0.163,4.002,0.488s2.192,0.821,3.014,1.488c0.821,0.667,1.452,1.505,1.891,2.514
		c0.439,1.008,0.659,2.195,0.659,3.563v16.885H154.979z M154.514,169.02h-5.39c-1.057,0-1.967,0.105-2.731,0.318
		c-0.764,0.211-1.39,0.513-1.878,0.903c-0.488,0.392-0.85,0.859-1.085,1.405c-0.236,0.545-0.354,1.16-0.354,1.844
		c0,0.473,0.073,0.925,0.219,1.356s0.382,0.814,0.708,1.148s0.748,0.599,1.268,0.794c0.52,0.195,1.154,0.293,1.902,0.293
		c0.975,0,2.093-0.297,3.353-0.892c1.26-0.595,2.589-1.535,3.987-2.822V169.02z"/>
	<path d="M186.566,180.176h-19.75v-3.041l13.835-17.896H167.16v-3.563h18.594v3.303l-13.591,17.604h14.403V180.176z"/>
	<path d="M216.025,155.676l-8.361,21.893c-0.863,2.234-1.754,4.158-2.674,5.772s-1.925,2.938-3.016,3.974s-2.287,1.797-3.59,2.285
		c-1.302,0.488-2.758,0.732-4.369,0.732c-0.424,0-0.807-0.008-1.148-0.023s-0.717-0.039-1.123-0.07v-3.844
		c0.357,0.047,0.748,0.09,1.172,0.129s0.871,0.059,1.344,0.059c0.781,0,1.509-0.114,2.185-0.342c0.676-0.229,1.314-0.6,1.917-1.113
		s1.18-1.178,1.734-1.992c0.553-0.816,1.09-1.802,1.611-2.959l-9.775-24.5h4.834l6.189,16.219l1.242,3.791l1.418-3.904l5.747-16.105
		H216.025z"/>
	<path d="M270.975,163.869c0,1.529-0.118,2.994-0.354,4.395c-0.236,1.398-0.614,2.701-1.135,3.905s-1.195,2.299-2.025,3.283
		c-0.829,0.985-1.846,1.827-3.049,2.526c-1.204,0.7-2.604,1.241-4.197,1.623c-1.594,0.383-3.407,0.574-5.439,0.574h-6.832V148.27
		h8.223c4.977,0,8.688,1.281,11.137,3.846C269.75,154.678,270.975,158.596,270.975,163.869z M266.412,164.188
		c0-2.264-0.211-4.176-0.635-5.74c-0.422-1.563-1.064-2.824-1.927-3.785s-1.944-1.657-3.245-2.089s-2.83-0.647-4.586-0.647h-3.732
		v24.5h3.244C262.785,176.426,266.412,172.347,266.412,164.188z"/>
	<path d="M298.027,167.73c0,1.903-0.269,3.648-0.806,5.234s-1.311,2.943-2.319,4.074c-1.01,1.131-2.238,2.009-3.688,2.635
		s-3.093,0.939-4.932,0.939c-1.758,0-3.333-0.272-4.725-0.817s-2.572-1.346-3.541-2.403c-0.969-1.057-1.709-2.367-2.221-3.928
		c-0.514-1.563-0.77-3.359-0.77-5.393c0-1.903,0.269-3.64,0.806-5.209c0.537-1.57,1.31-2.92,2.319-4.051
		c1.01-1.13,2.238-2.008,3.688-2.635c1.448-0.626,3.092-0.939,4.932-0.939c1.758,0,3.332,0.272,4.725,0.817
		c1.391,0.545,2.571,1.343,3.54,2.392s1.71,2.354,2.222,3.916C297.771,163.924,298.027,165.714,298.027,167.73z M293.684,167.93
		c0-1.512-0.167-2.832-0.501-3.961s-0.81-2.07-1.429-2.826s-1.371-1.324-2.26-1.707c-0.887-0.381-1.876-0.572-2.967-0.572
		c-1.271,0-2.357,0.248-3.261,0.744c-0.903,0.495-1.645,1.157-2.223,1.986c-0.578,0.828-1.001,1.791-1.271,2.887
		c-0.268,1.098-0.402,2.246-0.402,3.449c0,1.511,0.166,2.835,0.5,3.973c0.334,1.137,0.811,2.083,1.43,2.838
		c0.618,0.756,1.367,1.324,2.246,1.707c0.88,0.381,1.873,0.572,2.98,0.572c1.27,0,2.357-0.248,3.261-0.743s1.644-1.157,2.222-1.986
		s1.002-1.792,1.271-2.888C293.549,170.305,293.684,169.148,293.684,167.93z"/>
	<path d="M321.824,159.145c0.457,0.568,0.811,1.23,1.064,1.985c0.252,0.755,0.379,1.571,0.379,2.448
		c0,1.269-0.232,2.427-0.697,3.475c-0.465,1.049-1.12,1.947-1.968,2.695s-1.862,1.329-3.044,1.744
		c-1.183,0.414-2.482,0.621-3.9,0.621c-1.027,0-1.989-0.109-2.886-0.33c-0.896-0.219-1.605-0.492-2.127-0.817
		c-0.309,0.456-0.569,0.888-0.78,1.294s-0.316,0.861-0.316,1.365c0,0.619,0.297,1.131,0.891,1.537
		c0.595,0.406,1.381,0.626,2.357,0.658l6.445,0.244c1.221,0.033,2.349,0.188,3.383,0.465c1.033,0.276,1.92,0.676,2.661,1.196
		s1.319,1.164,1.733,1.929c0.416,0.766,0.623,1.652,0.623,2.662c0,1.092-0.236,2.125-0.708,3.103
		c-0.472,0.977-1.2,1.835-2.185,2.577c-0.984,0.74-2.234,1.33-3.748,1.771c-1.514,0.438-3.312,0.659-5.395,0.659
		c-1.985,0-3.674-0.158-5.065-0.476s-2.535-0.757-3.431-1.317c-0.895-0.563-1.545-1.229-1.952-2.001s-0.61-1.623-0.61-2.55
		c0-1.188,0.275-2.229,0.827-3.123s1.403-1.757,2.555-2.587c-0.424-0.195-0.79-0.439-1.101-0.732
		c-0.309-0.293-0.563-0.614-0.758-0.966c-0.195-0.35-0.342-0.721-0.439-1.111s-0.146-0.773-0.146-1.148
		c0-1.059,0.248-2.027,0.746-2.906c0.496-0.879,1.088-1.71,1.772-2.492c-0.31-0.373-0.583-0.739-0.819-1.097
		s-0.44-0.743-0.611-1.158s-0.301-0.862-0.391-1.341c-0.09-0.48-0.135-1.029-0.135-1.646c0-1.268,0.232-2.426,0.697-3.475
		s1.116-1.947,1.956-2.695s1.851-1.328,3.032-1.743c1.183-0.415,2.491-0.622,3.926-0.622c0.604,0,1.183,0.041,1.737,0.121
		c0.554,0.082,1.044,0.188,1.468,0.316h8.902v3.469H321.824z M307.08,183.709c0,1.152,0.602,1.992,1.806,2.52
		s2.88,0.791,5.026,0.791c1.351,0,2.485-0.122,3.404-0.365c0.919-0.244,1.659-0.564,2.221-0.961
		c0.562-0.398,0.964-0.853,1.208-1.363c0.244-0.512,0.366-1.035,0.366-1.57c0-0.99-0.406-1.721-1.221-2.19
		c-0.813-0.471-2.058-0.747-3.732-0.828l-6.395-0.22c-0.537,0.357-0.98,0.706-1.33,1.047s-0.621,0.686-0.816,1.035
		c-0.195,0.348-0.334,0.697-0.415,1.047C307.121,182.998,307.08,183.352,307.08,183.709z M308.361,163.676
		c0,0.781,0.13,1.498,0.391,2.148c0.26,0.652,0.627,1.205,1.098,1.661c0.473,0.456,1.029,0.81,1.672,1.062
		c0.643,0.253,1.355,0.379,2.137,0.379c0.846,0,1.599-0.143,2.258-0.428c0.659-0.284,1.213-0.671,1.66-1.159s0.789-1.05,1.025-1.685
		c0.235-0.635,0.354-1.295,0.354-1.979c0-0.781-0.131-1.497-0.391-2.148c-0.261-0.651-0.627-1.205-1.099-1.66
		c-0.472-0.457-1.029-0.811-1.672-1.063s-1.354-0.379-2.136-0.379c-0.847,0-1.6,0.146-2.258,0.439c-0.66,0.293-1.213,0.68-1.66,1.16
		s-0.789,1.038-1.025,1.673S308.361,162.992,308.361,163.676z"/>
	<path d="M341.305,172.488c0.553,0,1.076,0.105,1.572,0.317s0.926,0.505,1.292,0.878c0.366,0.375,0.654,0.81,0.866,1.306
		c0.211,0.496,0.316,1.028,0.316,1.599c0,0.553-0.105,1.073-0.316,1.561c-0.212,0.488-0.5,0.916-0.866,1.281
		c-0.366,0.367-0.796,0.655-1.292,0.867c-0.496,0.211-1.02,0.316-1.572,0.316c-0.568,0-1.098-0.105-1.584-0.316
		c-0.488-0.212-0.915-0.5-1.281-0.867c-0.365-0.365-0.654-0.793-0.865-1.281c-0.211-0.487-0.316-1.008-0.316-1.561
		c0-0.57,0.105-1.103,0.316-1.599s0.5-0.931,0.865-1.306c0.366-0.373,0.793-0.666,1.281-0.878
		C340.207,172.594,340.736,172.488,341.305,172.488z"/>
</g>
<g>
	<path d="M537.733,21.25c2.461,3.059,4.375,6.617,5.742,10.68c1.363,4.063,2.047,8.453,2.047,13.168
		c0,6.859-1.254,13.121-3.762,18.793s-6.051,10.527-10.625,14.57c-4.578,4.043-10.055,7.184-16.434,9.426
		c-6.383,2.242-13.398,3.363-21.055,3.363c-5.547,0-10.738-0.59-15.578-1.777s-8.668-2.66-11.48-4.418
		c-1.641,2.461-3.02,4.789-4.137,6.977c-1.121,2.188-1.68,4.637-1.68,7.344c0,3.32,1.598,6.074,4.801,8.258
		s7.434,3.363,12.699,3.535l34.738,1.32c6.578,0.176,12.652,1.012,18.223,2.504s10.348,3.645,14.34,6.457s7.105,6.285,9.344,10.418
		c2.234,4.129,3.355,8.918,3.355,14.367c0,5.887-1.277,11.469-3.824,16.742c-2.551,5.273-6.484,9.906-11.805,13.91
		c-5.32,3.996-12.066,7.18-20.242,9.555c-8.176,2.371-17.891,3.559-29.141,3.559c-10.727,0-19.852-0.855-27.367-2.566
		s-13.691-4.082-18.527-7.109c-4.836-3.031-8.352-6.629-10.547-10.797c-2.199-4.172-3.297-8.758-3.297-13.758
		c0-6.406,1.5-12.023,4.504-16.848c3-4.828,7.637-9.48,13.906-13.957c-2.281-1.055-4.258-2.371-5.922-3.953
		c-1.668-1.578-3.027-3.313-4.082-5.203c-1.055-1.887-1.844-3.883-2.367-5.992c-0.527-2.109-0.789-4.172-0.789-6.195
		c0-5.707,1.336-10.934,4.016-15.676c2.676-4.742,5.855-9.223,9.543-13.441c-1.672-2.02-3.148-3.996-4.422-5.934
		c-1.277-1.934-2.379-4.02-3.301-6.262s-1.625-4.66-2.109-7.254s-0.727-5.559-0.727-8.902c0-6.855,1.254-13.117,3.762-18.789
		s6.031-10.527,10.563-14.57s9.992-7.188,16.375-9.43S485.917,0,493.663,0c3.258,0,6.383,0.234,9.375,0.695
		c2.992,0.465,5.633,1.066,7.922,1.805h48.063v18.75H537.733z M458.022,153.824c0,6.238,3.246,10.785,9.746,13.645
		c6.5,2.852,15.547,4.281,27.141,4.281c7.289,0,13.414-0.66,18.375-1.977c4.961-1.32,8.957-3.055,11.988-5.207
		c3.031-2.156,5.203-4.617,6.523-7.379c1.316-2.77,1.977-5.605,1.977-8.504c0-5.359-2.199-9.316-6.59-11.859
		c-4.391-2.547-11.109-4.043-20.152-4.484l-34.516-1.184c-2.898,1.934-5.293,3.82-7.18,5.668c-1.891,1.84-3.359,3.707-4.414,5.602
		c-1.055,1.887-1.805,3.773-2.242,5.668C458.241,149.98,458.022,151.891,458.022,153.824z M465.022,45.625
		c0,4.227,0.703,8.098,2.109,11.617s3.387,6.512,5.938,8.973c2.547,2.465,5.559,4.379,9.035,5.742
		c3.473,1.363,7.32,2.043,11.543,2.043c4.57,0,8.637-0.77,12.199-2.309s6.551-3.629,8.973-6.27c2.418-2.641,4.266-5.676,5.539-9.105
		s1.914-6.996,1.914-10.691c0-4.223-0.707-8.094-2.113-11.613s-3.387-6.512-5.934-8.977c-2.551-2.461-5.563-4.375-9.035-5.738
		c-3.477-1.363-7.324-2.047-11.543-2.047c-4.574,0-8.641,0.793-12.203,2.375c-3.563,1.586-6.551,3.676-8.969,6.27
		c-2.422,2.598-4.27,5.613-5.543,9.043S465.022,41.93,465.022,45.625z"/>
</g>
<g>
	<path d="M10.732,214.113l-0.039-1.32c-0.534,0.526-1.076,0.907-1.625,1.141s-1.127,0.351-1.733,0.351
		c-0.56,0-1.038-0.072-1.435-0.215c-0.397-0.143-0.725-0.34-0.981-0.591s-0.446-0.545-0.566-0.884
		c-0.12-0.338-0.18-0.707-0.18-1.104c0-0.983,0.366-1.753,1.098-2.31s1.814-0.835,3.246-0.835h2.031v-0.857
		c0-0.578-0.186-1.04-0.557-1.388c-0.372-0.347-0.938-0.521-1.701-0.521c-0.554,0-1.1,0.063-1.638,0.187
		c-0.537,0.125-1.093,0.302-1.667,0.532v-1.531c0.215-0.08,0.454-0.159,0.718-0.235c0.264-0.077,0.542-0.146,0.835-0.206
		s0.599-0.108,0.918-0.145s0.641-0.055,0.967-0.055c0.592,0,1.126,0.065,1.602,0.196c0.475,0.13,0.877,0.329,1.206,0.596
		s0.581,0.603,0.757,1.006c0.176,0.404,0.264,0.88,0.264,1.427v6.76H10.732z M10.547,209.645H8.39c-0.423,0-0.788,0.042-1.093,0.127
		c-0.306,0.084-0.557,0.205-0.752,0.361s-0.34,0.343-0.434,0.561s-0.142,0.464-0.142,0.736c0,0.189,0.029,0.369,0.088,0.542
		c0.059,0.172,0.153,0.325,0.283,0.458c0.13,0.133,0.3,0.239,0.508,0.317s0.462,0.117,0.762,0.117c0.39,0,0.837-0.119,1.342-0.356
		s1.036-0.613,1.596-1.127V209.645z"/>
	<path d="M23.809,209.037c0,0.815-0.112,1.543-0.337,2.186s-0.543,1.187-0.957,1.633s-0.916,0.789-1.508,1.026
		c-0.593,0.238-1.26,0.357-2.001,0.357c-0.579,0-1.172-0.055-1.777-0.166s-1.204-0.287-1.796-0.527v-13.229h1.703v3.796
		l-0.078,1.815c0.488-0.658,1.009-1.123,1.566-1.394c0.556-0.271,1.152-0.406,1.79-0.406c0.559,0,1.05,0.118,1.473,0.352
		c0.422,0.234,0.777,0.565,1.063,0.992s0.5,0.942,0.644,1.545C23.737,207.621,23.809,208.294,23.809,209.037z M22.075,209.116
		c0-0.515-0.038-0.988-0.112-1.418c-0.075-0.43-0.194-0.799-0.356-1.105c-0.163-0.307-0.371-0.546-0.625-0.719
		c-0.253-0.173-0.556-0.259-0.907-0.259c-0.215,0-0.433,0.035-0.653,0.103c-0.222,0.068-0.451,0.183-0.688,0.342
		s-0.488,0.372-0.751,0.636c-0.264,0.264-0.545,0.592-0.844,0.983v4.765c0.332,0.13,0.67,0.233,1.015,0.308
		c0.345,0.075,0.673,0.113,0.986,0.113c0.39,0,0.763-0.062,1.117-0.186s0.667-0.331,0.937-0.621c0.271-0.29,0.485-0.675,0.645-1.154
		C21.995,210.422,22.075,209.827,22.075,209.116z"/>
	<path d="M34.055,213.754c-0.443,0.17-0.897,0.296-1.363,0.377s-0.946,0.123-1.441,0.123c-1.55,0-2.744-0.42-3.581-1.26
		s-1.255-2.067-1.255-3.682c0-0.775,0.121-1.478,0.362-2.109c0.241-0.631,0.579-1.172,1.016-1.621s0.958-0.796,1.563-1.04
		c0.605-0.244,1.273-0.366,2.003-0.366c0.508,0,0.983,0.037,1.427,0.11c0.442,0.073,0.866,0.193,1.27,0.359v1.625
		c-0.423-0.223-0.854-0.386-1.294-0.488s-0.894-0.153-1.362-0.153c-0.436,0-0.848,0.083-1.235,0.249
		c-0.387,0.166-0.728,0.405-1.021,0.718c-0.293,0.312-0.524,0.692-0.693,1.142c-0.169,0.449-0.254,0.956-0.254,1.522
		c0,1.184,0.288,2.07,0.864,2.659c0.576,0.589,1.375,0.883,2.397,0.883c0.462,0,0.91-0.052,1.343-0.156s0.851-0.26,1.255-0.469
		V213.754z"/>
	<path d="M36.926,209.414c0-0.833,0.114-1.573,0.341-2.221c0.228-0.647,0.552-1.194,0.972-1.64s0.924-0.784,1.514-1.015
		c0.589-0.231,1.244-0.347,1.967-0.347c0.313,0,0.62,0.02,0.923,0.059s0.6,0.101,0.893,0.186v-4.119h1.703v13.797h-1.518
		l-0.059-1.859c-0.476,0.69-0.989,1.201-1.543,1.533c-0.553,0.332-1.151,0.498-1.796,0.498c-0.56,0-1.053-0.117-1.479-0.351
		c-0.427-0.234-0.781-0.565-1.064-0.991s-0.496-0.938-0.64-1.537C36.998,210.807,36.926,210.143,36.926,209.414z M38.661,209.308
		c0,1.185,0.174,2.068,0.523,2.651c0.348,0.582,0.842,0.874,1.479,0.874c0.43,0,0.884-0.192,1.363-0.576
		c0.479-0.384,0.981-0.954,1.509-1.709v-4.549c-0.28-0.13-0.589-0.229-0.928-0.298s-0.674-0.103-1.006-0.103
		c-0.925,0-1.646,0.299-2.164,0.898C38.919,207.095,38.661,208.032,38.661,209.308z"/>
	<path d="M56.704,208.689c0,0.241-0.003,0.443-0.01,0.605s-0.016,0.316-0.029,0.459h-6.883c0,1,0.28,1.769,0.839,2.305
		c0.559,0.536,1.366,0.804,2.419,0.804c0.286,0,0.572-0.011,0.858-0.034s0.563-0.054,0.83-0.093s0.521-0.083,0.766-0.133
		c0.244-0.049,0.47-0.103,0.678-0.162v1.391c-0.462,0.134-0.985,0.244-1.567,0.328c-0.583,0.083-1.187,0.125-1.812,0.125
		c-0.839,0-1.562-0.114-2.167-0.342s-1.102-0.558-1.489-0.991s-0.674-0.963-0.859-1.592S48,210.021,48,209.227
		c0-0.69,0.099-1.343,0.298-1.958s0.489-1.156,0.87-1.621s0.848-0.835,1.401-1.108s1.182-0.41,1.885-0.41
		c0.684,0,1.29,0.107,1.817,0.322s0.972,0.519,1.333,0.913s0.635,0.873,0.82,1.436S56.704,207.993,56.704,208.689z M54.938,208.441
		c0.02-0.435-0.023-0.833-0.127-1.194s-0.265-0.671-0.483-0.931s-0.49-0.463-0.815-0.609c-0.326-0.146-0.703-0.219-1.133-0.219
		c-0.371,0-0.709,0.072-1.016,0.214c-0.306,0.144-0.57,0.345-0.791,0.604s-0.4,0.572-0.537,0.936s-0.221,0.764-0.254,1.199H54.938z"
		/>
	<path d="M68.122,201.895c-0.891-0.188-1.658-0.281-2.302-0.281c-1.528,0-2.292,0.798-2.292,2.396v1.714h4.297v1.422h-4.297v6.969
		h-1.734v-6.969h-3.156v-1.422h3.156v-1.615c0-2.611,1.361-3.916,4.082-3.916c0.677,0,1.426,0.078,2.246,0.234V201.895z"/>
	<path d="M77.479,205.691c0.182,0.229,0.323,0.495,0.424,0.797c0.101,0.304,0.151,0.632,0.151,0.984
		c0,0.508-0.093,0.973-0.278,1.393c-0.186,0.421-0.447,0.781-0.786,1.081s-0.744,0.533-1.215,0.699
		c-0.472,0.167-0.991,0.25-1.557,0.25c-0.41,0-0.794-0.044-1.152-0.132s-0.641-0.197-0.849-0.327
		c-0.125,0.182-0.23,0.355-0.316,0.517c-0.086,0.162-0.128,0.344-0.128,0.544c0,0.246,0.119,0.45,0.356,0.612
		c0.238,0.162,0.552,0.249,0.942,0.262l2.578,0.098c0.488,0.013,0.939,0.075,1.352,0.186s0.768,0.271,1.064,0.479
		c0.296,0.209,0.527,0.466,0.693,0.773s0.249,0.662,0.249,1.067c0,0.437-0.094,0.851-0.283,1.242s-0.48,0.736-0.874,1.033
		s-0.894,0.533-1.499,0.709c-0.605,0.176-1.324,0.264-2.157,0.264c-0.794,0-1.469-0.064-2.026-0.191
		c-0.556-0.127-1.013-0.303-1.371-0.527c-0.358-0.226-0.618-0.492-0.781-0.802c-0.162-0.31-0.244-0.65-0.244-1.022
		c0-0.476,0.111-0.893,0.333-1.251c0.222-0.358,0.565-0.704,1.028-1.036c-0.171-0.078-0.319-0.176-0.443-0.293
		c-0.125-0.117-0.227-0.246-0.306-0.386c-0.079-0.14-0.138-0.288-0.178-0.444s-0.059-0.309-0.059-0.459c0-0.423,0.1-0.811,0.3-1.162
		c0.201-0.352,0.439-0.684,0.715-0.996c-0.124-0.15-0.233-0.296-0.327-0.44c-0.094-0.143-0.176-0.298-0.244-0.464
		s-0.12-0.345-0.156-0.538s-0.054-0.413-0.054-0.66c0-0.508,0.093-0.973,0.278-1.393s0.446-0.78,0.781-1.08s0.739-0.533,1.211-0.699
		s0.995-0.25,1.567-0.25c0.241,0,0.472,0.016,0.693,0.048s0.417,0.073,0.586,0.124h3.555v1.391H77.479z M71.586,215.534
		c0,0.463,0.241,0.8,0.722,1.012c0.481,0.212,1.151,0.318,2.009,0.318c0.54,0,0.994-0.049,1.361-0.147s0.663-0.227,0.888-0.386
		c0.225-0.16,0.385-0.343,0.483-0.548c0.098-0.206,0.146-0.416,0.146-0.631c0-0.397-0.163-0.691-0.488-0.88
		c-0.325-0.189-0.823-0.3-1.493-0.333l-2.556-0.088c-0.214,0.144-0.392,0.284-0.531,0.42s-0.249,0.275-0.327,0.416
		c-0.078,0.14-0.133,0.28-0.166,0.42C71.603,215.249,71.586,215.39,71.586,215.534z M72.102,207.512c0,0.313,0.052,0.6,0.156,0.86
		c0.104,0.261,0.251,0.482,0.439,0.665s0.411,0.324,0.668,0.425s0.542,0.151,0.854,0.151c0.338,0,0.639-0.057,0.902-0.171
		s0.485-0.269,0.664-0.464s0.315-0.42,0.41-0.675c0.094-0.254,0.142-0.518,0.142-0.792c0-0.313-0.052-0.599-0.156-0.86
		s-0.25-0.482-0.439-0.665s-0.412-0.324-0.668-0.425c-0.257-0.102-0.542-0.152-0.854-0.152c-0.338,0-0.639,0.059-0.903,0.176
		c-0.263,0.117-0.484,0.271-0.663,0.464s-0.315,0.416-0.41,0.67C72.149,206.974,72.102,207.238,72.102,207.512z"/>
	<path d="M89.301,214.113h-1.703v-6.26c0-0.755-0.142-1.32-0.425-1.694s-0.688-0.562-1.216-0.562c-0.229,0-0.441,0.031-0.641,0.093
		c-0.198,0.062-0.405,0.169-0.62,0.322s-0.449,0.36-0.703,0.62s-0.547,0.586-0.879,0.977v6.504h-1.703v-13.797h1.703v3.991
		l-0.059,1.541c0.267-0.319,0.529-0.587,0.787-0.806s0.515-0.396,0.772-0.532c0.257-0.137,0.52-0.235,0.787-0.293
		s0.544-0.088,0.831-0.088c0.978,0,1.733,0.298,2.268,0.894c0.534,0.596,0.801,1.493,0.801,2.691V214.113z"/>
	<path d="M95.75,205.707H92.86v-1.406h4.609v8.391h2.922v1.422h-7.859v-1.422h3.219V205.707z M96.336,200.191
		c0.188,0,0.364,0.034,0.526,0.103s0.304,0.164,0.424,0.288s0.214,0.265,0.283,0.424s0.103,0.333,0.103,0.521
		c0,0.182-0.034,0.354-0.103,0.517c-0.068,0.162-0.163,0.305-0.283,0.429s-0.262,0.22-0.424,0.288s-0.338,0.102-0.526,0.102
		s-0.364-0.034-0.527-0.102c-0.162-0.068-0.304-0.165-0.424-0.288s-0.215-0.267-0.283-0.429c-0.068-0.163-0.102-0.335-0.102-0.517
		c0-0.188,0.034-0.362,0.102-0.521s0.163-0.301,0.283-0.424s0.262-0.219,0.424-0.288C95.973,200.226,96.148,200.191,96.336,200.191z
		"/>
	<path d="M110.059,204.301v9.64c0,0.684-0.098,1.292-0.293,1.824c-0.196,0.531-0.477,0.979-0.842,1.344s-0.813,0.642-1.345,0.831
		s-1.13,0.284-1.795,0.284c-0.483,0-0.954-0.044-1.414-0.132c-0.46-0.088-0.876-0.211-1.248-0.368v-1.625
		c0.202,0.104,0.419,0.198,0.651,0.283c0.232,0.084,0.47,0.155,0.715,0.214c0.245,0.059,0.491,0.102,0.739,0.132
		c0.248,0.029,0.49,0.043,0.725,0.043c0.744,0,1.328-0.234,1.753-0.702c0.424-0.468,0.636-1.158,0.636-2.071v-8.29h-4.813v-1.406
		H110.059z M109.036,200.191c0.188,0,0.364,0.034,0.526,0.103s0.304,0.164,0.424,0.288s0.214,0.267,0.283,0.429
		s0.103,0.334,0.103,0.517c0,0.188-0.034,0.363-0.103,0.522s-0.163,0.3-0.283,0.424s-0.262,0.22-0.424,0.288
		s-0.338,0.102-0.526,0.102s-0.364-0.034-0.527-0.102c-0.162-0.068-0.304-0.165-0.424-0.288s-0.215-0.265-0.283-0.424
		s-0.102-0.333-0.102-0.522c0-0.182,0.034-0.354,0.102-0.517s0.163-0.306,0.283-0.429s0.262-0.219,0.424-0.288
		C108.672,200.226,108.847,200.191,109.036,200.191z"/>
	<path d="M123.211,214.113h-2.328l-4.563-5.253v5.253h-1.703v-13.797h1.703v8.475l4.391-4.491h2.25l-4.594,4.53L123.211,214.113z"/>
	<path d="M128.739,201.707h-2.891v-1.391h4.609v12.375h2.922v1.422h-7.859v-1.422h3.219V201.707z"/>
	<path d="M143.375,214.113v-7.04c0-0.306-0.011-0.556-0.034-0.751s-0.059-0.35-0.107-0.464c-0.049-0.114-0.111-0.194-0.186-0.239
		s-0.167-0.068-0.278-0.068c-0.13,0-0.25,0.039-0.361,0.117s-0.229,0.205-0.355,0.381c-0.127,0.176-0.267,0.409-0.419,0.698
		c-0.153,0.29-0.333,0.646-0.541,1.069v6.297h-1.547v-6.854c0-0.358-0.011-0.647-0.035-0.869c-0.022-0.221-0.059-0.394-0.107-0.518
		s-0.112-0.208-0.191-0.254s-0.173-0.068-0.284-0.068c-0.118,0-0.229,0.033-0.333,0.098s-0.221,0.182-0.348,0.352
		c-0.127,0.169-0.27,0.4-0.426,0.693c-0.157,0.293-0.343,0.667-0.558,1.123v6.297h-1.563v-9.813h1.299l0.078,1.867
		c0.169-0.371,0.333-0.686,0.493-0.946c0.16-0.26,0.324-0.47,0.494-0.629c0.169-0.159,0.35-0.276,0.542-0.351
		c0.192-0.075,0.405-0.112,0.64-0.112c0.527,0,0.928,0.172,1.201,0.517s0.411,0.878,0.411,1.6c0.156-0.338,0.309-0.639,0.458-0.902
		c0.149-0.263,0.311-0.484,0.482-0.663c0.173-0.179,0.363-0.315,0.571-0.41s0.449-0.142,0.722-0.142
		c1.229,0,1.843,0.948,1.843,2.843v7.141H143.375z"/>
	<path d="M147.387,204.301h1.517l0.068,1.583c0.287-0.338,0.564-0.619,0.831-0.844c0.267-0.224,0.529-0.404,0.787-0.541
		c0.257-0.137,0.52-0.232,0.787-0.288s0.544-0.083,0.831-0.083c1.01,0,1.774,0.298,2.292,0.894c0.518,0.596,0.777,1.493,0.777,2.691
		v6.399h-1.703v-6.26c0-0.768-0.143-1.336-0.43-1.704c-0.286-0.368-0.713-0.552-1.279-0.552c-0.209,0-0.412,0.031-0.611,0.093
		c-0.198,0.062-0.405,0.169-0.62,0.322s-0.448,0.36-0.698,0.62c-0.251,0.26-0.533,0.586-0.845,0.977v6.504h-1.703V204.301z"/>
	<path d="M166.93,209.129c0,0.762-0.108,1.46-0.323,2.095s-0.524,1.178-0.928,1.631s-0.896,0.804-1.476,1.055
		c-0.579,0.25-1.237,0.376-1.973,0.376c-0.704,0-1.333-0.109-1.891-0.327s-1.029-0.539-1.417-0.962s-0.684-0.947-0.889-1.572
		s-0.308-1.344-0.308-2.158c0-0.762,0.107-1.457,0.322-2.085s0.524-1.168,0.928-1.621s0.896-0.804,1.475-1.055
		s1.238-0.376,1.974-0.376c0.704,0,1.333,0.109,1.89,0.327c0.557,0.218,1.029,0.537,1.417,0.957s0.684,0.942,0.889,1.567
		S166.93,208.322,166.93,209.129z M165.196,209.21c0-0.604-0.067-1.133-0.201-1.584c-0.134-0.452-0.324-0.829-0.572-1.132
		c-0.248-0.302-0.55-0.529-0.905-0.683c-0.355-0.152-0.752-0.229-1.189-0.229c-0.509,0-0.944,0.099-1.306,0.297
		c-0.362,0.198-0.659,0.463-0.891,0.795s-0.401,0.717-0.509,1.156c-0.108,0.439-0.162,0.899-0.162,1.38
		c0,0.605,0.067,1.135,0.201,1.59s0.324,0.834,0.572,1.136s0.548,0.53,0.9,0.683c0.352,0.153,0.75,0.229,1.194,0.229
		c0.509,0,0.944-0.099,1.306-0.297s0.659-0.463,0.891-0.795s0.401-0.717,0.509-1.155
		C165.142,210.161,165.196,209.698,165.196,209.21z"/>
	<path d="M177.754,209.037c0,0.874-0.122,1.637-0.366,2.288c-0.244,0.652-0.58,1.193-1.01,1.623
		c-0.429,0.43-0.937,0.753-1.521,0.968c-0.585,0.215-1.22,0.323-1.902,0.323c-0.312,0-0.623-0.017-0.932-0.05
		c-0.309-0.034-0.622-0.091-0.941-0.172v4.098h-1.703v-13.813h1.517l0.107,1.642c0.488-0.67,1.008-1.14,1.561-1.409
		s1.151-0.405,1.795-0.405c0.559,0,1.05,0.118,1.473,0.352c0.422,0.234,0.777,0.565,1.063,0.992s0.5,0.942,0.644,1.545
		C177.683,207.621,177.754,208.294,177.754,209.037z M176.02,209.116c0-0.515-0.038-0.988-0.112-1.418
		c-0.075-0.43-0.194-0.799-0.356-1.105c-0.163-0.307-0.371-0.546-0.625-0.719c-0.253-0.173-0.556-0.259-0.907-0.259
		c-0.215,0-0.433,0.035-0.653,0.103c-0.222,0.068-0.451,0.183-0.688,0.342s-0.488,0.372-0.751,0.636
		c-0.264,0.264-0.545,0.592-0.844,0.983v4.765c0.312,0.13,0.641,0.233,0.985,0.308c0.345,0.075,0.683,0.113,1.015,0.113
		c0.917,0,1.636-0.311,2.156-0.934S176.02,210.369,176.02,209.116z"/>
	<path d="M179.875,209.414c0-0.703,0.092-1.37,0.278-2.001c0.186-0.631,0.472-1.186,0.859-1.664s0.883-0.857,1.488-1.137
		c0.605-0.28,1.328-0.42,2.167-0.42c0.332,0,0.661,0.026,0.986,0.078s0.67,0.133,1.035,0.244l1.499-0.385v13.984h-1.703v-3.699
		l0.088-2.098c-0.924,1.313-2.024,1.969-3.3,1.969c-0.573,0-1.071-0.117-1.494-0.351c-0.423-0.234-0.776-0.566-1.06-0.996
		s-0.495-0.943-0.635-1.542C179.945,210.797,179.875,210.136,179.875,209.414z M181.61,209.31c0,0.546,0.041,1.038,0.122,1.473
		c0.082,0.437,0.205,0.806,0.371,1.108s0.375,0.535,0.625,0.698c0.25,0.162,0.545,0.244,0.884,0.244c0.43,0,0.884-0.192,1.363-0.576
		c0.479-0.384,0.981-0.953,1.509-1.708v-4.547c-0.261-0.123-0.555-0.224-0.884-0.302s-0.679-0.117-1.05-0.117
		c-0.958,0-1.688,0.316-2.188,0.947C181.86,207.16,181.61,208.086,181.61,209.31z"/>
	<path d="M191.778,204.301h1.553l0.049,1.811c0.58-0.696,1.152-1.201,1.715-1.514s1.132-0.469,1.706-0.469
		c1.016,0,1.787,0.33,2.312,0.988c0.524,0.659,0.767,1.637,0.728,2.934h-1.719c0.02-0.86-0.106-1.484-0.376-1.872
		s-0.667-0.582-1.188-0.582c-0.228,0-0.458,0.041-0.689,0.123c-0.231,0.081-0.469,0.211-0.713,0.391
		c-0.245,0.179-0.504,0.409-0.778,0.688c-0.274,0.28-0.567,0.619-0.88,1.017v6.297h-1.719V204.301z"/>
	<path d="M210.149,211.434c0,0.345-0.059,0.654-0.176,0.928s-0.277,0.516-0.479,0.728s-0.437,0.392-0.704,0.542
		s-0.553,0.273-0.856,0.371c-0.303,0.098-0.614,0.169-0.934,0.215s-0.632,0.068-0.939,0.068c-0.666,0-1.277-0.03-1.834-0.089
		s-1.104-0.155-1.639-0.286v-1.563c0.574,0.164,1.144,0.288,1.71,0.373c0.567,0.085,1.131,0.127,1.691,0.127
		c0.814,0,1.417-0.11,1.809-0.332c0.391-0.221,0.586-0.536,0.586-0.946c0-0.176-0.031-0.333-0.093-0.474
		c-0.062-0.14-0.174-0.273-0.337-0.4s-0.416-0.259-0.758-0.396c-0.343-0.137-0.811-0.293-1.403-0.469
		c-0.443-0.13-0.853-0.278-1.228-0.444s-0.699-0.363-0.973-0.591c-0.274-0.228-0.489-0.495-0.646-0.801
		c-0.157-0.306-0.235-0.667-0.235-1.084c0-0.273,0.063-0.573,0.191-0.898c0.127-0.326,0.344-0.628,0.651-0.908
		c0.307-0.28,0.721-0.513,1.244-0.698s1.175-0.278,1.959-0.278c0.385,0,0.813,0.021,1.283,0.063s0.96,0.115,1.469,0.218v1.516
		c-0.537-0.128-1.045-0.223-1.526-0.284c-0.48-0.061-0.897-0.091-1.251-0.091c-0.425,0-0.783,0.033-1.074,0.097
		c-0.291,0.065-0.526,0.154-0.706,0.268c-0.18,0.113-0.31,0.246-0.388,0.398c-0.079,0.152-0.118,0.316-0.118,0.491
		c0,0.176,0.034,0.335,0.103,0.479c0.068,0.143,0.196,0.282,0.382,0.415c0.187,0.133,0.446,0.267,0.779,0.4s0.768,0.278,1.303,0.435
		c0.582,0.169,1.071,0.347,1.47,0.532s0.722,0.392,0.97,0.62s0.426,0.485,0.534,0.771
		C210.095,210.744,210.149,211.069,210.149,211.434z"/>
	<path d="M221.254,213.988c-0.384,0.095-0.781,0.163-1.191,0.204c-0.41,0.041-0.827,0.062-1.25,0.062
		c-1.23,0-2.147-0.279-2.752-0.836c-0.605-0.558-0.908-1.414-0.908-2.568v-5.126h-2.743v-1.422h2.743V201.6l1.703-0.44v3.141h4.398
		v1.422h-4.398v4.99c0,0.705,0.187,1.231,0.561,1.581c0.374,0.349,0.925,0.523,1.653,0.523c0.312,0,0.653-0.024,1.023-0.072
		c0.371-0.048,0.758-0.123,1.161-0.225V213.988z"/>
	<path d="M232.25,214.113h-1.527l-0.059-1.583c-0.294,0.338-0.572,0.62-0.836,0.844c-0.264,0.225-0.526,0.405-0.787,0.541
		c-0.261,0.137-0.523,0.232-0.787,0.288c-0.264,0.055-0.542,0.083-0.835,0.083c-1.01,0-1.773-0.296-2.288-0.889
		s-0.772-1.488-0.772-2.687v-6.409h1.703v6.274c0,1.505,0.567,2.257,1.7,2.257c0.209,0,0.412-0.031,0.611-0.093
		s0.407-0.169,0.625-0.323c0.218-0.153,0.452-0.359,0.703-0.62s0.532-0.59,0.845-0.987v-6.508h1.703V214.113z"/>
	<path d="M234.45,204.301h1.934l2.401,6.499l0.517,1.586l0.538-1.625l2.386-6.459h1.865l-3.852,9.813h-1.953L234.45,204.301z"/>
	<path d="M255.43,204.301l-1.423,9.813h-2.061l-1.413-4.114l-0.283-1l-0.322,1.058l-1.354,4.056h-2.002l-1.424-9.813h1.66
		l0.828,6.671l0.176,1.479l0.42-1.293l1.422-4.419h1.221l1.529,4.36l0.439,1.293l0.146-1.372l0.76-6.72H255.43z"/>
	<path d="M266.191,214.113h-2.256l-2.655-3.746l-2.61,3.746h-2.197l3.805-4.924l-3.633-4.888h2.178l2.578,3.779l2.535-3.779h2.1
		l-3.681,4.93L266.191,214.113z"/>
	<path d="M277.063,204.301l-3.34,8.763c-0.345,0.895-0.701,1.666-1.068,2.312c-0.368,0.646-0.77,1.177-1.206,1.592
		c-0.436,0.415-0.914,0.72-1.435,0.916c-0.521,0.195-1.103,0.293-1.746,0.293c-0.17,0-0.322-0.002-0.459-0.008
		s-0.287-0.013-0.449-0.023v-1.547c0.143,0.02,0.299,0.038,0.469,0.054c0.168,0.016,0.348,0.024,0.536,0.024
		c0.312,0,0.603-0.045,0.873-0.137c0.271-0.091,0.525-0.239,0.766-0.445c0.241-0.206,0.472-0.471,0.692-0.797
		c0.222-0.326,0.437-0.72,0.645-1.183l-3.918-9.813h1.934l2.482,6.498l0.498,1.517l0.566-1.563l2.295-6.451H277.063z"/>
	<path d="M287.293,214.113h-7.906v-1.215l5.537-7.176h-5.396v-1.422h7.438v1.316l-5.439,7.059h5.768V214.113z"/>
	<path d="M298.914,207.735c0,0.976-0.098,1.866-0.293,2.669s-0.492,1.494-0.889,2.07c-0.398,0.576-0.892,1.022-1.48,1.337
		c-0.59,0.315-1.281,0.473-2.076,0.473c-0.684,0-1.307-0.128-1.866-0.385c-0.56-0.257-1.039-0.652-1.437-1.187
		c-0.396-0.533-0.703-1.213-0.918-2.04c-0.215-0.826-0.322-1.806-0.322-2.938c0-0.976,0.1-1.868,0.298-2.674
		c0.198-0.807,0.495-1.499,0.89-2.074c0.394-0.576,0.887-1.022,1.479-1.338c0.593-0.315,1.283-0.473,2.071-0.473
		c0.684,0,1.306,0.128,1.866,0.386c0.56,0.257,1.038,0.654,1.437,1.191c0.396,0.537,0.703,1.219,0.918,2.045
		S298.914,206.603,298.914,207.735z M291.352,207.677c0,0.201,0.002,0.402,0.005,0.603s0.015,0.396,0.034,0.583l5.404-3.984
		c-0.098-0.333-0.222-0.636-0.371-0.91c-0.15-0.274-0.329-0.51-0.538-0.709c-0.208-0.199-0.446-0.354-0.713-0.465
		c-0.268-0.111-0.567-0.167-0.899-0.167c-0.443,0-0.846,0.107-1.207,0.322s-0.67,0.536-0.924,0.961
		c-0.254,0.427-0.449,0.954-0.586,1.582S291.352,206.85,291.352,207.677z M297.195,207.793c0-0.22-0.008-0.438-0.024-0.654
		s-0.034-0.428-0.054-0.635l-5.404,4c0.098,0.339,0.222,0.652,0.371,0.939c0.15,0.287,0.331,0.533,0.543,0.739
		c0.211,0.206,0.452,0.365,0.723,0.479c0.271,0.114,0.578,0.171,0.924,0.171c0.442,0,0.845-0.107,1.207-0.322
		c0.361-0.215,0.669-0.534,0.924-0.957c0.254-0.423,0.449-0.949,0.586-1.577S297.195,208.621,297.195,207.793z"/>
	<path d="M309.504,214.113h-8.016v-1.578h3.281v-9.328l-3.062,1.656l-0.626-1.453l4.068-2.125h1.51v11.25h2.844V214.113z"/>
	<path d="M320.609,214.113h-8.406v-1.527l3.293-3.278c0.539-0.533,0.978-0.995,1.315-1.385s0.601-0.747,0.789-1.069
		s0.315-0.627,0.38-0.913c0.065-0.286,0.098-0.596,0.098-0.928c0-0.313-0.042-0.611-0.127-0.895
		c-0.084-0.284-0.215-0.533-0.39-0.749c-0.176-0.215-0.403-0.384-0.683-0.508s-0.613-0.186-1.004-0.186
		c-0.539,0-1.029,0.121-1.471,0.361c-0.442,0.241-0.849,0.553-1.219,0.936l-0.936-1.121c0.481-0.507,1.036-0.913,1.664-1.218
		s1.358-0.458,2.191-0.458c0.566,0,1.082,0.084,1.547,0.254s0.867,0.413,1.205,0.732c0.339,0.319,0.601,0.709,0.786,1.171
		s0.278,0.982,0.278,1.562c0,0.488-0.065,0.94-0.195,1.357s-0.327,0.831-0.591,1.244s-0.595,0.841-0.995,1.284
		s-0.874,0.927-1.421,1.455l-2.313,2.254h6.203V214.113z"/>
	<path d="M331.371,210.239c0,0.56-0.114,1.084-0.342,1.575c-0.229,0.49-0.57,0.919-1.025,1.287c-0.456,0.367-1.029,0.657-1.72,0.868
		s-1.494,0.317-2.412,0.317c-0.509,0-0.964-0.015-1.368-0.043c-0.403-0.029-0.781-0.066-1.133-0.113v-1.531
		c0.403,0.07,0.83,0.124,1.279,0.162c0.448,0.038,0.907,0.057,1.376,0.057c0.638,0,1.183-0.057,1.636-0.171
		c0.452-0.114,0.821-0.278,1.107-0.493c0.287-0.215,0.495-0.476,0.625-0.781s0.195-0.651,0.195-1.035
		c0-0.351-0.078-0.657-0.234-0.917c-0.156-0.261-0.376-0.479-0.659-0.654s-0.621-0.307-1.015-0.395
		c-0.395-0.088-0.825-0.132-1.293-0.132h-1.455v-1.391h1.479c0.386,0,0.736-0.05,1.054-0.152c0.316-0.101,0.588-0.247,0.813-0.436
		c0.226-0.189,0.398-0.423,0.52-0.701c0.121-0.277,0.182-0.593,0.182-0.945c0-0.686-0.209-1.186-0.627-1.499
		c-0.417-0.313-1.03-0.47-1.84-0.47c-0.43,0-0.874,0.043-1.331,0.129c-0.456,0.086-0.946,0.215-1.468,0.387v-1.484
		c0.222-0.079,0.457-0.149,0.709-0.21c0.25-0.063,0.501-0.115,0.752-0.157s0.5-0.075,0.748-0.098
		c0.247-0.023,0.485-0.035,0.713-0.035c0.678,0,1.274,0.074,1.789,0.22s0.945,0.356,1.29,0.63s0.606,0.606,0.782,0.997
		c0.176,0.392,0.264,0.831,0.264,1.32c0,0.73-0.188,1.342-0.563,1.837s-0.889,0.89-1.54,1.183c0.331,0.052,0.658,0.156,0.98,0.313
		c0.321,0.156,0.611,0.355,0.868,0.6c0.257,0.243,0.465,0.531,0.624,0.862C331.291,209.469,331.371,209.836,331.371,210.239z"/>
	<path d="M343.242,211.285h-2.188v2.828h-1.734v-2.828h-6.141v-1.5l5.438-8.438h2.438v8.438h2.188V211.285z M339.32,202.988
		l-4.441,6.797h4.441V202.988z"/>
	<path d="M353.27,210.025c0,0.632-0.137,1.209-0.41,1.729c-0.273,0.521-0.649,0.969-1.128,1.344s-1.043,0.666-1.693,0.875
		c-0.651,0.208-1.354,0.313-2.109,0.313c-0.188,0-0.392-0.005-0.61-0.014c-0.218-0.01-0.434-0.022-0.648-0.038
		c-0.215-0.017-0.425-0.034-0.63-0.053c-0.205-0.02-0.39-0.042-0.552-0.067v-1.547c0.352,0.086,0.753,0.15,1.205,0.19
		s0.909,0.06,1.371,0.06c0.521,0,0.989-0.062,1.405-0.186c0.417-0.124,0.771-0.302,1.063-0.533c0.293-0.231,0.518-0.513,0.674-0.842
		c0.156-0.33,0.234-0.7,0.234-1.111c0-0.796-0.285-1.375-0.854-1.737c-0.57-0.362-1.39-0.543-2.457-0.543h-2.423v-6.516h6.875v1.484
		h-5.266v3.578h1.112c0.612,0,1.207,0.055,1.786,0.167c0.579,0.11,1.095,0.304,1.547,0.581s0.816,0.648,1.093,1.114
		S353.27,209.322,353.27,210.025z"/>
	<path d="M364.75,210.07c0,0.585-0.105,1.135-0.317,1.649s-0.513,0.961-0.903,1.342s-0.86,0.68-1.41,0.898
		c-0.551,0.218-1.16,0.327-1.831,0.327c-0.703,0-1.325-0.112-1.865-0.337s-0.992-0.57-1.356-1.035
		c-0.365-0.466-0.642-1.053-0.83-1.763c-0.189-0.709-0.283-1.549-0.283-2.52c0-0.65,0.042-1.282,0.127-1.894
		c0.084-0.612,0.225-1.188,0.42-1.729c0.194-0.54,0.455-1.035,0.78-1.484s0.729-0.834,1.215-1.157
		c0.484-0.322,1.056-0.573,1.713-0.752s1.418-0.269,2.283-0.269h1.259v1.484h-1.364c-0.76,0-1.419,0.091-1.978,0.273
		s-1.026,0.439-1.403,0.771s-0.666,0.732-0.867,1.201s-0.328,0.993-0.38,1.572l-0.039,0.401c0.41-0.24,0.883-0.432,1.419-0.578
		s1.116-0.219,1.741-0.219c0.643,0,1.207,0.094,1.691,0.283c0.484,0.189,0.888,0.451,1.209,0.786
		c0.322,0.335,0.564,0.736,0.727,1.205C364.669,208.996,364.75,209.51,364.75,210.07z M362.969,210.179
		c0-0.391-0.047-0.744-0.142-1.06c-0.094-0.315-0.241-0.583-0.442-0.801c-0.202-0.218-0.457-0.388-0.766-0.508
		c-0.309-0.121-0.677-0.181-1.105-0.181c-0.246,0-0.496,0.023-0.75,0.069c-0.253,0.046-0.501,0.11-0.744,0.192
		c-0.244,0.082-0.477,0.175-0.697,0.28c-0.221,0.105-0.422,0.217-0.604,0.334c0,0.839,0.059,1.54,0.176,2.103
		c0.116,0.563,0.29,1.013,0.521,1.352s0.515,0.579,0.853,0.722c0.338,0.143,0.727,0.214,1.169,0.214c0.37,0,0.709-0.06,1.018-0.181
		s0.574-0.298,0.799-0.533c0.224-0.234,0.399-0.519,0.526-0.854C362.905,210.991,362.969,210.609,362.969,210.179z"/>
	<path d="M375.527,202.926l-5.356,11.188h-1.943l5.562-11.188h-6.902v-1.578h8.641V202.926z"/>
	<path d="M386.586,210.908c0,0.54-0.111,1.02-0.332,1.44c-0.222,0.419-0.531,0.772-0.929,1.059s-0.866,0.504-1.407,0.654
		c-0.541,0.149-1.127,0.224-1.759,0.224c-0.697,0-1.312-0.078-1.843-0.234c-0.53-0.156-0.975-0.374-1.333-0.654
		s-0.629-0.611-0.812-0.995s-0.273-0.807-0.273-1.269c0-0.78,0.219-1.453,0.656-2.019c0.438-0.566,1.113-1.08,2.027-1.542
		c-0.834-0.423-1.442-0.894-1.826-1.412c-0.385-0.518-0.576-1.112-0.576-1.783c0-0.41,0.084-0.807,0.254-1.192
		c0.169-0.384,0.425-0.726,0.767-1.025s0.77-0.539,1.284-0.718c0.514-0.18,1.119-0.269,1.816-0.269c0.657,0,1.235,0.07,1.733,0.21
		s0.916,0.34,1.255,0.6c0.338,0.261,0.592,0.576,0.762,0.947c0.169,0.371,0.254,0.784,0.254,1.24c0,0.742-0.207,1.374-0.62,1.894
		s-1.001,0.977-1.763,1.367c0.377,0.189,0.729,0.397,1.054,0.625c0.325,0.228,0.608,0.481,0.849,0.762
		c0.241,0.279,0.428,0.592,0.562,0.937S386.586,210.485,386.586,210.908z M384.742,211.037c0-0.241-0.039-0.475-0.117-0.702
		s-0.219-0.452-0.42-0.673c-0.202-0.221-0.473-0.442-0.811-0.663c-0.339-0.221-0.769-0.449-1.289-0.683
		c-0.443,0.214-0.815,0.427-1.118,0.639s-0.547,0.426-0.732,0.644s-0.317,0.444-0.396,0.678s-0.117,0.481-0.117,0.741
		c0,0.292,0.063,0.551,0.19,0.776c0.127,0.224,0.301,0.414,0.522,0.57c0.221,0.156,0.484,0.273,0.791,0.352
		c0.306,0.078,0.638,0.117,0.996,0.117c0.345,0,0.67-0.036,0.977-0.107c0.306-0.072,0.571-0.181,0.796-0.327
		s0.401-0.332,0.532-0.556C384.677,211.618,384.742,211.349,384.742,211.037z M384.57,204.312c0-0.578-0.203-1.008-0.61-1.291
		c-0.407-0.282-0.979-0.423-1.715-0.423c-0.729,0-1.298,0.14-1.705,0.418c-0.407,0.279-0.61,0.698-0.61,1.256
		c0,0.254,0.049,0.488,0.146,0.703s0.249,0.416,0.454,0.604c0.205,0.189,0.461,0.374,0.767,0.557
		c0.307,0.182,0.672,0.367,1.095,0.556c0.735-0.345,1.283-0.704,1.642-1.078C384.391,205.24,384.57,204.806,384.57,204.312z"/>
	<path d="M397.535,207.015c0,1.244-0.15,2.313-0.45,3.208c-0.3,0.896-0.743,1.631-1.33,2.207s-1.314,1.001-2.182,1.274
		s-1.868,0.41-3.003,0.41h-1.066v-1.484h1.183c0.841,0,1.567-0.084,2.18-0.254c0.612-0.169,1.122-0.418,1.53-0.748
		c0.406-0.329,0.718-0.73,0.934-1.203c0.215-0.473,0.348-1.011,0.4-1.615l0.039-0.399c-0.41,0.24-0.883,0.433-1.417,0.579
		c-0.534,0.146-1.114,0.218-1.74,0.218c-0.645,0-1.212-0.094-1.7-0.283c-0.489-0.188-0.895-0.452-1.217-0.791
		s-0.565-0.74-0.729-1.206c-0.163-0.465-0.244-0.971-0.244-1.518c0-0.592,0.107-1.145,0.322-1.658
		c0.216-0.514,0.518-0.961,0.905-1.342c0.388-0.381,0.853-0.682,1.394-0.903c0.541-0.221,1.138-0.332,1.79-0.332
		c0.632,0,1.218,0.104,1.756,0.313s1.002,0.545,1.394,1.011c0.391,0.465,0.697,1.069,0.92,1.811
		C397.424,205.052,397.535,205.954,397.535,207.015z M393.049,202.566c-0.365,0-0.703,0.06-1.014,0.181
		c-0.31,0.12-0.577,0.296-0.802,0.527c-0.226,0.231-0.403,0.516-0.534,0.854c-0.13,0.339-0.195,0.727-0.195,1.163
		c0,0.397,0.047,0.752,0.142,1.065s0.241,0.578,0.44,0.796c0.199,0.219,0.455,0.386,0.769,0.503s0.685,0.176,1.116,0.176
		c0.241,0,0.49-0.023,0.748-0.068s0.51-0.107,0.754-0.186s0.479-0.169,0.7-0.273s0.421-0.215,0.597-0.332
		c0-0.84-0.063-1.542-0.186-2.105c-0.125-0.563-0.304-1.017-0.539-1.358c-0.234-0.342-0.521-0.584-0.856-0.728
		C393.853,202.638,393.473,202.566,393.049,202.566z"/>
	<path d="M417.902,218.113h-4.813v-18.141h4.813v1.375h-3.188v15.391h3.188V218.113z"/>
	<path d="M439.348,218.113h-4.813v-1.375h3.172v-15.391h-3.172v-1.375h4.813V218.113z"/>
	<path d="M461.157,218.223c-3.003-2.782-4.505-5.857-4.505-9.226c0-0.788,0.08-1.575,0.239-2.36s0.417-1.572,0.772-2.36
		c0.354-0.788,0.824-1.576,1.407-2.365s1.291-1.57,2.125-2.346l0.987,1.006c-2.531,2.496-3.797,5.261-3.797,8.297
		c0,1.512,0.319,2.964,0.959,4.359c0.639,1.394,1.585,2.71,2.838,3.948L461.157,218.223z"/>
	<path d="M479.265,199.566c3.003,2.782,4.505,5.877,4.505,9.284c0,0.704-0.072,1.433-0.215,2.189
		c-0.144,0.756-0.388,1.53-0.733,2.321c-0.345,0.791-0.81,1.594-1.393,2.409c-0.583,0.814-1.317,1.632-2.203,2.453l-0.987-1.006
		c1.27-1.258,2.218-2.57,2.844-3.938c0.625-1.368,0.938-2.802,0.938-4.3c0-3.101-1.261-5.89-3.781-8.366L479.265,199.566z"/>
	<path d="M506.449,218.113h-0.722c-1.255,0-2.188-0.294-2.799-0.883c-0.611-0.589-0.917-1.481-0.917-2.678v-3.356
		c0-0.319-0.036-0.604-0.107-0.854c-0.072-0.25-0.197-0.462-0.376-0.634s-0.417-0.304-0.713-0.395s-0.669-0.137-1.118-0.137h-0.42
		v-1.359h0.42c0.475,0,0.862-0.039,1.162-0.117c0.299-0.078,0.533-0.197,0.703-0.356c0.169-0.16,0.286-0.363,0.352-0.611
		c0.064-0.247,0.098-0.54,0.098-0.879v-2.315c0-0.547,0.064-1.041,0.195-1.48c0.13-0.439,0.343-0.814,0.639-1.123
		c0.296-0.31,0.68-0.547,1.15-0.713c0.472-0.166,1.049-0.25,1.731-0.25h0.722v1.375h-0.573c-1.503,0-2.255,0.732-2.255,2.196v2.274
		c0,1.587-0.688,2.482-2.061,2.684c1.384,0.137,2.076,1.027,2.076,2.671v3.333c0,1.488,0.746,2.232,2.238,2.232h0.574V218.113z"/>
	<path d="M521.941,199.973h0.722c1.255,0,2.188,0.294,2.799,0.884c0.611,0.589,0.917,1.483,0.917,2.681v2.256
		c0,0.319,0.036,0.604,0.107,0.854c0.072,0.251,0.197,0.463,0.377,0.635s0.419,0.304,0.719,0.396
		c0.301,0.091,0.676,0.137,1.126,0.137h0.421v1.359h-0.421c-0.477,0-0.866,0.039-1.169,0.117c-0.304,0.078-0.541,0.197-0.71,0.356
		c-0.17,0.159-0.287,0.363-0.353,0.61c-0.065,0.248-0.098,0.54-0.098,0.878v3.415c0,0.546-0.065,1.039-0.195,1.478
		s-0.342,0.813-0.634,1.122s-0.676,0.546-1.15,0.712c-0.475,0.166-1.054,0.249-1.736,0.249h-0.722v-1.375h0.583
		c1.497,0,2.245-0.731,2.245-2.193v-3.373c0-1.586,0.687-2.477,2.061-2.671c-1.385-0.149-2.076-1.044-2.076-2.684v-2.235
		c0-1.49-0.743-2.235-2.229-2.235h-0.584V199.973z"/>
	<path d="M551.133,200.316l-6.703,15.891h-1.621l6.703-15.891H551.133z"/>
	<path d="M573.563,216.207h-1.621l-6.703-15.891h1.621L573.563,216.207z"/>
	<path d="M594.637,213.196l-1.064,1.074l-6.561-5.477l6.561-5.477l1.064,1.083l-5.313,4.374L594.637,213.196z"/>
	<path d="M609.707,204.4l1.056-1.083l6.569,5.477l-6.569,5.477l-1.056-1.074l5.328-4.383L609.707,204.4z"/>
	<path d="M638.652,204.652c0,1.055-0.294,1.854-0.882,2.397c-0.587,0.543-1.439,0.851-2.556,0.923l-0.078,2.391h-1.451l-0.127-3.734
		h1.146c0.397,0,0.73-0.042,0.998-0.126c0.268-0.085,0.483-0.205,0.646-0.361s0.28-0.346,0.353-0.571
		c0.071-0.224,0.107-0.476,0.107-0.756c0-0.473-0.098-0.895-0.293-1.264s-0.47-0.681-0.821-0.934
		c-0.353-0.253-0.771-0.444-1.256-0.574s-1.016-0.195-1.589-0.195h-0.244v-1.531h0.264c0.658,0,1.259,0.062,1.803,0.186
		c0.543,0.124,1.028,0.292,1.455,0.503s0.798,0.46,1.113,0.747c0.316,0.287,0.58,0.589,0.792,0.908s0.368,0.649,0.469,0.991
		S638.652,204.327,638.652,204.652z M634.402,211.707c0.183,0,0.352,0.034,0.509,0.103c0.156,0.068,0.292,0.161,0.405,0.278
		c0.114,0.117,0.204,0.255,0.27,0.415c0.064,0.16,0.098,0.327,0.098,0.503s-0.033,0.342-0.098,0.498
		c-0.065,0.156-0.155,0.292-0.27,0.405c-0.113,0.114-0.249,0.205-0.405,0.273c-0.157,0.068-0.326,0.103-0.509,0.103
		c-0.176,0-0.343-0.034-0.499-0.103s-0.294-0.16-0.411-0.273s-0.208-0.249-0.273-0.405s-0.098-0.322-0.098-0.498
		s0.032-0.343,0.098-0.503s0.156-0.298,0.273-0.415s0.255-0.21,0.411-0.278S634.227,211.707,634.402,211.707z"/>
</g>
</svg>
